<?xml version="1.0" standalone="no"?>
<!DOCTYPE svg PUBLIC "-//W3C//DTD SVG 20010904//EN"
 "http://www.w3.org/TR/2001/REC-SVG-20010904/DTD/svg10.dtd">
<svg version="1.0" xmlns="http://www.w3.org/2000/svg"
 width="200.000000pt" height="86.000000pt" viewBox="0 0 200.000000 86.000000"
 preserveAspectRatio="xMidYMid meet">

<g transform="translate(0.000000,86.000000) scale(0.100000,-0.100000)"
fill="#000000" stroke="none">
<path d="M230 605 c10 -12 46 -15 201 -15 161 0 189 -2 189 -15 0 -13 -25 -15
-166 -15 -128 0 -165 -3 -162 -12 3 -10 49 -14 164 -18 132 -4 159 -8 159 -20
0 -12 -22 -15 -128 -18 -112 -2 -127 -5 -117 -17 10 -12 39 -15 131 -15 99 0
119 -3 119 -15 0 -12 -16 -15 -82 -16 -46 -1 -92 0 -103 1 -16 2 -17 0 -6 -14
9 -11 36 -16 99 -18 73 -3 87 -6 90 -20 3 -16 -5 -18 -63 -18 -59 0 -66 -2
-55 -15 9 -11 33 -15 90 -15 l78 0 4 98 c4 106 24 157 70 180 17 8 -45 11
-251 11 -242 1 -272 -1 -261 -14z"/>
<path d="M1282 600 c43 -34 58 -79 58 -179 l0 -91 84 0 c62 0 87 4 96 15 11
13 4 15 -54 15 -59 0 -66 2 -66 20 0 17 8 20 92 22 62 2 93 7 96 16 3 9 -20
12 -92 12 -79 0 -96 3 -96 15 0 12 20 15 119 15 93 0 121 3 131 15 11 13 -3
15 -119 15 -124 0 -131 1 -131 20 0 18 8 20 157 22 119 2 157 6 161 16 2 7 -2
13 -9 11 -8 -1 -80 -1 -161 0 -124 1 -148 3 -148 16 0 13 27 15 184 15 151 0
186 3 196 15 11 13 -18 15 -255 15 l-268 0 25 -20z"/>
<path d="M1135 600 c-108 -33 -128 -192 -32 -250 40 -25 109 -26 148 -3 33 19
36 34 13 54 -13 10 -20 10 -45 -5 -20 -12 -39 -16 -57 -11 -28 7 -62 32 -62
47 0 4 50 8 110 8 l110 0 0 30 c0 90 -96 157 -185 130z m93 -66 c42 -29 27
-41 -53 -41 -41 0 -75 3 -75 8 0 16 53 49 79 49 15 0 37 -7 49 -16z"/>
<path d="M758 582 c-57 -35 -75 -129 -38 -190 24 -39 73 -62 130 -62 l40 0 0
60 c0 57 -1 60 -24 60 -19 0 -25 -6 -28 -27 -4 -35 -19 -38 -51 -13 -20 16
-27 30 -27 56 0 49 29 74 85 74 43 0 45 1 45 30 0 30 -1 30 -52 30 -32 0 -64
-7 -80 -18z"/>
<path d="M920 510 c0 -103 14 -141 60 -165 42 -22 50 -19 50 16 0 21 -8 37
-25 51 -23 18 -25 26 -25 104 l0 84 -30 0 -30 0 0 -90z"/>
<path d="M510 266 c0 -8 4 -17 9 -20 5 -4 7 3 4 14 -6 23 -13 26 -13 6z"/>
<path d="M573 266 c-10 -11 -9 -15 3 -20 9 -3 12 -1 9 4 -3 6 -1 10 4 10 6 0
11 5 11 10 0 14 -13 12 -27 -4z"/>
<path d="M620 266 c0 -8 -6 -16 -12 -19 -7 -3 -4 -5 8 -4 20 1 33 37 13 37 -5
0 -9 -6 -9 -14z"/>
<path d="M666 272 c-2 -4 -1 -14 5 -22 7 -12 9 -10 9 8 0 23 -5 28 -14 14z"/>
<path d="M702 260 c0 -14 2 -19 5 -12 2 6 2 18 0 25 -3 6 -5 1 -5 -13z"/>
<path d="M800 268 c0 -9 7 -19 16 -22 15 -6 15 -4 3 11 -7 10 -15 20 -16 22
-2 2 -3 -3 -3 -11z"/>
<path d="M922 260 c0 -14 2 -19 5 -12 2 6 2 18 0 25 -3 6 -5 1 -5 -13z"/>
<path d="M962 260 c0 -14 2 -19 5 -12 2 6 2 18 0 25 -3 6 -5 1 -5 -13z"/>
<path d="M1062 260 c0 -14 2 -19 5 -12 2 6 2 18 0 25 -3 6 -5 1 -5 -13z"/>
<path d="M1211 264 c0 -11 3 -14 6 -6 3 7 2 16 -1 19 -3 4 -6 -2 -5 -13z"/>
<path d="M1270 266 c0 -8 7 -16 15 -20 8 -3 15 -1 15 4 0 6 -5 10 -11 10 -5 0
-7 5 -4 10 3 6 1 10 -4 10 -6 0 -11 -6 -11 -14z"/>
<path d="M1342 260 c0 -14 2 -19 5 -12 2 6 2 18 0 25 -3 6 -5 1 -5 -13z"/>
<path d="M1370 265 c-7 -9 -11 -17 -9 -20 3 -2 10 5 17 15 14 24 10 26 -8 5z"/>
<path d="M1406 273 c-11 -11 -6 -23 9 -23 8 0 15 4 15 9 0 13 -16 22 -24 14z"/>
<path d="M1442 260 c0 -14 2 -19 5 -12 2 6 2 18 0 25 -3 6 -5 1 -5 -13z"/>
<path d="M1311 254 c0 -11 3 -14 6 -6 3 7 2 16 -1 19 -3 4 -6 -2 -5 -13z"/>
<path d="M1470 255 c-11 -13 -10 -14 4 -9 9 3 16 10 16 15 0 13 -6 11 -20 -6z"/>
</g>
</svg>
